<svg width="48" height="49" viewBox="0 0 48 49" fill="none" xmlns="http://www.w3.org/2000/svg">
<mask id="mask0_11_88" style="mask-type:alpha" maskUnits="userSpaceOnUse" x="-1" y="0" width="49" height="49">
<rect x="-0.00195312" y="0.629395" width="48" height="48" fill="black"/>
</mask>
<g mask="url(#mask0_11_88)">
<path d="M24.0085 32.4924C26.4715 32.4924 28.5628 31.6309 30.2825 29.9079C32.0018 28.1849 32.8615 26.0925 32.8615 23.6309C32.8615 21.1895 31.9942 19.1232 30.2595 17.4319C28.5248 15.7402 26.4378 14.8517 23.9985 14.7664V17.4924C25.7128 17.5257 27.1643 18.1327 28.353 19.3134C29.5413 20.494 30.1355 21.9372 30.1355 23.6429C30.1355 25.3482 29.54 26.7952 28.349 27.9839C27.158 29.1722 25.7118 29.7664 24.0105 29.7664C22.8955 29.7664 21.8658 29.4902 20.9215 28.9379C19.9772 28.3859 19.2217 27.6359 18.655 26.6879L16.307 27.9729C17.107 29.3439 18.1863 30.4399 19.545 31.2609C20.9033 32.0819 22.3912 32.4924 24.0085 32.4924ZM16.4365 25.3054C16.8068 25.3054 17.1275 25.172 17.3985 24.9054C17.6695 24.6384 17.805 24.3202 17.805 23.9509C17.805 23.5815 17.6675 23.2654 17.3925 23.0024C17.1178 22.7394 16.7943 22.6079 16.422 22.6079C16.0497 22.6079 15.7328 22.7399 15.4715 23.0039C15.2098 23.2682 15.079 23.583 15.079 23.9484C15.079 24.3217 15.2127 24.6412 15.48 24.9069C15.7477 25.1725 16.0665 25.3054 16.4365 25.3054ZM17.6045 20.9924C17.9778 20.9924 18.2973 20.8575 18.563 20.5879C18.8287 20.3185 18.9615 19.997 18.9615 19.6234C18.9615 19.25 18.8267 18.9305 18.557 18.6649C18.2877 18.3992 17.9662 18.2664 17.5925 18.2664C17.2192 18.2664 16.8997 18.4012 16.634 18.6709C16.3683 18.9402 16.2355 19.2617 16.2355 19.6354C16.2355 20.0087 16.3703 20.3282 16.64 20.5939C16.9093 20.8595 17.2308 20.9924 17.6045 20.9924ZM20.6455 18.0729C21.0192 18.0729 21.3388 17.938 21.6045 17.6684C21.8702 17.399 22.003 17.0775 22.003 16.7039C22.003 16.3305 21.8692 16.011 21.6015 15.7454C21.3342 15.4797 21.0153 15.3469 20.645 15.3469C20.275 15.3469 19.9592 15.4815 19.6975 15.7509C19.4358 16.0205 19.305 16.342 19.305 16.7154C19.305 17.089 19.4372 17.4087 19.7015 17.6744C19.9655 17.94 20.2802 18.0729 20.6455 18.0729ZM23.9965 45.3144C19.1258 44.0947 15.1242 41.293 11.9915 36.9094C8.85849 32.5254 7.29199 27.7184 7.29199 22.4884V10.0859L23.9985 3.84436L40.7335 10.0869V22.4794C40.7335 27.7117 39.1617 32.5207 36.018 36.9064C32.8747 41.292 28.8675 44.0947 23.9965 45.3144ZM23.9985 41.2534C27.7375 39.8924 30.7965 37.496 33.1755 34.0644C35.5545 30.6324 36.744 26.7735 36.744 22.4879V12.8774L23.9985 8.06186L11.253 12.8909V22.4744C11.253 26.769 12.4425 30.6324 14.8215 34.0644C17.2005 37.496 20.2595 39.8924 23.9985 41.2534Z" fill="black"/>
</g>
</svg>
