<svg width="15" height="20" viewBox="0 0 15 20" fill="none" xmlns="http://www.w3.org/2000/svg">
<path d="M8.50977 18.8569C8.50977 19.4092 8.06205 19.8569 7.50977 19.8569C6.95748 19.8569 6.50977 19.4092 6.50977 18.8569L8.50977 18.8569ZM6.80266 1.04509C7.19318 0.654566 7.82635 0.654566 8.21687 1.04509L14.5808 7.40905C14.9714 7.79958 14.9714 8.43274 14.5808 8.82327C14.1903 9.21379 13.5571 9.21379 13.1666 8.82327L7.50977 3.16641L1.85291 8.82326C1.46239 9.21379 0.829223 9.21379 0.438698 8.82326C0.0481739 8.43274 0.0481739 7.79958 0.438698 7.40905L6.80266 1.04509ZM6.50977 18.8569L6.50977 1.7522L8.50977 1.7522L8.50977 18.8569L6.50977 18.8569Z" fill="black"/>
</svg>
