<svg width="19" height="15" viewBox="0 0 19 15" fill="none" xmlns="http://www.w3.org/2000/svg">
<path d="M12.5488 14.9341L11.1488 13.5091L14.7238 9.93408H5.04883C3.79883 9.93408 2.73633 9.49658 1.86133 8.62158C0.986328 7.74658 0.548828 6.68408 0.548828 5.43408C0.548828 4.18408 0.986328 3.12158 1.86133 2.24658C2.73633 1.37158 3.79883 0.934082 5.04883 0.934082H5.54883V2.93408H5.04883C4.34883 2.93408 3.75716 3.17575 3.27383 3.65908C2.79049 4.14242 2.54883 4.73408 2.54883 5.43408C2.54883 6.13408 2.79049 6.72575 3.27383 7.20908C3.75716 7.69242 4.34883 7.93408 5.04883 7.93408H14.7238L11.1488 4.33408L12.5488 2.93408L18.5488 8.93408L12.5488 14.9341Z" fill="black"/>
</svg>
