<svg width="49" height="49" viewBox="0 0 49 49" fill="none" xmlns="http://www.w3.org/2000/svg">
<mask id="mask0_11_106" style="mask-type:alpha" maskUnits="userSpaceOnUse" x="0" y="0" width="49" height="49">
<rect x="0.220703" y="0.763672" width="48" height="48" fill="#D9D9D9"/>
</mask>
<g mask="url(#mask0_11_106)">
<path d="M17.2838 43.0286C13.4301 41.639 10.2989 39.251 7.89028 35.8646C5.48161 32.4783 4.27728 28.6461 4.27728 24.3681C4.27728 23.4331 4.34295 22.503 4.47428 21.5776C4.60528 20.6523 4.81645 19.7483 5.10778 18.8656L2.21878 20.5461L0.238281 17.1486L9.70778 11.6681L15.1883 21.0876L11.7688 23.0961L9.32078 18.9656C8.98611 19.8396 8.72678 20.7245 8.54278 21.6201C8.35845 22.5158 8.26628 23.4318 8.26628 24.3681C8.26628 27.9521 9.30445 31.1275 11.3808 33.8941C13.4568 36.6608 16.1106 38.5491 19.3423 39.5591L17.2838 43.0286ZM31.5143 18.1591V14.1986H36.3318C34.8634 12.3753 33.0718 10.9553 30.9568 9.93864C28.8414 8.92197 26.5961 8.41364 24.2208 8.41364C22.1658 8.41364 20.2454 8.78313 18.4598 9.52213C16.6744 10.2615 15.0904 11.2703 13.7078 12.5486L11.6773 9.00063C13.3829 7.56597 15.3043 6.4493 17.4413 5.65063C19.5783 4.85197 21.8381 4.45264 24.2208 4.45264C26.9844 4.45264 29.5968 4.99247 32.0578 6.07213C34.5184 7.1518 36.6706 8.6808 38.5143 10.6591V7.19864H42.5033V18.1591H31.5143ZM30.1403 48.7636L20.6708 43.2831L26.1513 33.8351L29.5208 35.8441L27.2143 39.9331C30.9636 39.2925 34.0611 37.511 36.5068 34.5886C38.9524 31.666 40.1753 28.2685 40.1753 24.3961C40.1753 23.8468 40.1383 23.3178 40.0643 22.8091C39.9903 22.3005 39.8888 21.7788 39.7598 21.2441H43.7923C43.9069 21.7788 43.9976 22.3088 44.0643 22.8341C44.1309 23.3595 44.1643 23.8801 44.1643 24.3961C44.1643 28.9745 42.7621 33.0498 39.9578 36.6221C37.1535 40.1948 33.5476 42.5303 29.1403 43.6286L32.1493 45.3941L30.1403 48.7636Z" fill="black"/>
</g>
</svg>
