<svg width="25" height="25" viewBox="0 0 25 25" fill="none" xmlns="http://www.w3.org/2000/svg">
<mask id="mask0_111_13" style="mask-type:alpha" maskUnits="userSpaceOnUse" x="0" y="0" width="25" height="25">
<rect x="0.885742" y="0.836182" width="24" height="24" fill="#4B67F9"/>
</mask>
<g mask="url(#mask0_111_13)">
<path d="M15.8857 19.8362L14.4857 18.4112L18.0607 14.8362H8.38574C7.13574 14.8362 6.07324 14.3987 5.19824 13.5237C4.32324 12.6487 3.88574 11.5862 3.88574 10.3362C3.88574 9.08618 4.32324 8.02368 5.19824 7.14868C6.07324 6.27368 7.13574 5.83618 8.38574 5.83618H8.88574V7.83618H8.38574C7.68574 7.83618 7.09408 8.07785 6.61074 8.56118C6.12741 9.04452 5.88574 9.63618 5.88574 10.3362C5.88574 11.0362 6.12741 11.6278 6.61074 12.1112C7.09408 12.5945 7.68574 12.8362 8.38574 12.8362H18.0607L14.4857 9.23618L15.8857 7.83618L21.8857 13.8362L15.8857 19.8362Z" fill="#4B67F9"/>
</g>
</svg>
