<svg width="49" height="49" viewBox="0 0 49 49" fill="none" xmlns="http://www.w3.org/2000/svg">
<mask id="mask0_11_217" style="mask-type:alpha" maskUnits="userSpaceOnUse" x="0" y="0" width="49" height="49">
<rect x="0.1875" y="0.559814" width="48" height="48" fill="#D9D9D9"/>
</mask>
<g mask="url(#mask0_11_217)">
<path d="M7.44245 41.2662C6.33378 41.2662 5.39645 40.8832 4.63045 40.1172C3.86445 39.3512 3.48145 38.4139 3.48145 37.3052V7.81421C3.48145 6.69788 3.86445 5.75388 4.63045 4.98221C5.39645 4.21054 6.33378 3.82471 7.44245 3.82471H17.7269C18.8159 3.82471 19.7483 4.21054 20.5239 4.98221C21.2999 5.75388 21.6879 6.69788 21.6879 7.81421V18.0987H18.1509V14.0487H6.98994V31.0707H21.6879V37.3052C21.6879 38.4139 21.2999 39.3512 20.5239 40.1172C19.7483 40.8832 18.8159 41.2662 17.7269 41.2662H7.44245ZM30.5489 45.2662C29.4749 45.2662 28.5629 44.8912 27.8129 44.1412C27.0629 43.3912 26.6879 42.4832 26.6879 41.4172V31.0707H30.2249V35.0707H41.3859V18.0987H26.6879V11.8142C26.6879 10.6979 27.0738 9.75387 27.8454 8.98221C28.6168 8.21054 29.5606 7.82471 30.6769 7.82471H40.9334C42.0498 7.82471 42.9938 8.21054 43.7654 8.98221C44.5371 9.75387 44.9229 10.6979 44.9229 11.8142V41.3052C44.9229 42.4139 44.5371 43.3512 43.7654 44.1172C42.9938 44.8832 42.0498 45.2662 40.9334 45.2662H30.5489ZM6.98994 34.6077V37.7577H18.1509V34.6077H6.98994ZM30.2249 38.6077V41.7577H41.3859V38.6077H30.2249ZM6.98994 10.5117H18.1509V7.36171H6.98994V10.5117ZM30.2249 14.5617H41.3859V11.3617H30.2249V14.5617ZM15.6649 26.3422C15.1656 26.3422 14.7461 26.1675 14.4064 25.8182C14.0664 25.4689 13.8964 25.0447 13.8964 24.5457C13.8964 24.0464 14.0711 23.6267 14.4204 23.2867C14.7698 22.947 15.1941 22.7772 15.6934 22.7772C16.1928 22.7772 16.6123 22.9519 16.9519 23.3012C17.2919 23.6505 17.4619 24.0747 17.4619 24.5737C17.4619 25.073 17.2873 25.4927 16.9379 25.8327C16.5886 26.1724 16.1643 26.3422 15.6649 26.3422ZM24.1739 26.3422C23.6746 26.3422 23.2549 26.1675 22.9149 25.8182C22.5753 25.4689 22.4054 25.0447 22.4054 24.5457C22.4054 24.0464 22.5801 23.6267 22.9294 23.2867C23.2788 22.947 23.7029 22.7772 24.2019 22.7772C24.7013 22.7772 25.1209 22.9519 25.4609 23.3012C25.8006 23.6505 25.9704 24.0747 25.9704 24.5737C25.9704 25.073 25.7958 25.4927 25.4464 25.8327C25.0971 26.1724 24.6729 26.3422 24.1739 26.3422ZM32.7109 26.3422C32.2116 26.3422 31.7919 26.1675 31.4519 25.8182C31.1123 25.4689 30.9424 25.0447 30.9424 24.5457C30.9424 24.0464 31.1171 23.6267 31.4664 23.2867C31.8158 22.947 32.2399 22.7772 32.7389 22.7772C33.2383 22.7772 33.6579 22.9519 33.9979 23.3012C34.3376 23.6505 34.5074 24.0747 34.5074 24.5737C34.5074 25.073 34.3328 25.4927 33.9834 25.8327C33.6341 26.1724 33.2099 26.3422 32.7109 26.3422Z" fill="#1C1B1F"/>
</g>
</svg>
