<svg width="49" height="49" viewBox="0 0 49 49" fill="none" xmlns="http://www.w3.org/2000/svg">
<mask id="mask0_11_213" style="mask-type:alpha" maskUnits="userSpaceOnUse" x="0" y="0" width="49" height="49">
<rect x="0.40625" y="0.365723" width="48" height="48" fill="#D9D9D9"/>
</mask>
<g mask="url(#mask0_11_213)">
<path d="M18.3982 39.0721V35.1111H22.4547C22.0937 30.1098 20.1255 25.927 16.5502 22.5626C12.9749 19.1979 8.69153 17.5156 3.7002 17.5156V13.5546C8.21886 13.5546 12.3432 14.7604 16.0732 17.1721C19.8029 19.5838 22.5712 22.8498 24.3782 26.9701C25.5072 24.0714 27.1175 21.4923 29.2092 19.2326C31.3005 16.9726 33.7315 15.1018 36.5022 13.6201H29.0392V9.63062H43.1417V23.9026H39.1522V16.7331C35.5409 18.5114 32.5819 21.0183 30.2752 24.2536C27.9685 27.4893 26.6725 31.1084 26.3872 35.1111H30.4717V39.0721H18.3982Z" fill="#1C1B1F"/>
</g>
</svg>
