<svg width="49" height="49" viewBox="0 0 49 49" fill="none" xmlns="http://www.w3.org/2000/svg">
<mask id="mask0_11_97" style="mask-type:alpha" maskUnits="userSpaceOnUse" x="0" y="0" width="49" height="49">
<rect x="0.328125" y="0.629395" width="48" height="48" fill="#D9D9D9"/>
</mask>
<g mask="url(#mask0_11_97)">
<path d="M24.7431 34.4079C25.3131 34.4079 25.8097 34.1966 26.2331 33.7739C26.6561 33.3512 26.8676 32.8439 26.8676 32.2519C26.8676 31.6819 26.6556 31.1852 26.2316 30.7619C25.8076 30.3389 25.3057 30.1274 24.7261 30.1274C24.1467 30.1274 23.6501 30.3394 23.2361 30.7634C22.8224 31.1874 22.6156 31.6892 22.6156 32.2689C22.6156 32.8482 22.8241 33.3496 23.2411 33.7729C23.6584 34.1962 24.1591 34.4079 24.7431 34.4079ZM22.8656 27.0079H26.1396C26.1396 26.5079 26.1682 26.0614 26.2256 25.6684C26.2826 25.2757 26.4039 24.9056 26.5896 24.5579C26.7749 24.1722 27.0224 23.7914 27.3321 23.4154C27.6414 23.0391 28.0057 22.6507 28.4251 22.2504C29.3884 21.2871 30.0867 20.3711 30.5201 19.5024C30.9534 18.6334 31.1701 17.7041 31.1701 16.7144C31.1701 14.8721 30.5892 13.4342 29.4276 12.4009C28.2659 11.3676 26.7546 10.8509 24.8936 10.8509C23.0862 10.8509 21.5594 11.3111 20.3131 12.2314C19.0667 13.1517 18.1509 14.3381 17.5656 15.7904L20.6676 17.0314C21.1342 16.1924 21.6981 15.5077 22.3591 14.9774C23.0197 14.4467 23.8409 14.1814 24.8226 14.1814C25.7699 14.1814 26.5049 14.4296 27.0276 14.9259C27.5499 15.4222 27.8111 16.0796 27.8111 16.8979C27.8111 17.5276 27.6324 18.1319 27.2751 18.7109C26.9181 19.2899 26.4004 19.9194 25.7221 20.5994C25.1177 21.1731 24.6311 21.6742 24.2621 22.1029C23.8934 22.5312 23.5924 22.9929 23.3591 23.4879C23.1617 23.9566 23.0301 24.4676 22.9641 25.0209C22.8984 25.5742 22.8656 26.2366 22.8656 27.0079ZM24.3286 47.6469L18.0461 41.3359H9.58307C8.4994 41.3359 7.56824 40.9384 6.78957 40.1434C6.01124 39.3481 5.62207 38.4252 5.62207 37.3749V7.88391C5.62207 6.79258 6.01124 5.85491 6.78957 5.07091C7.56824 4.28658 8.4994 3.89441 9.58307 3.89441H39.0741C40.1321 3.89441 41.0614 4.28658 41.8621 5.07091C42.6631 5.85491 43.0636 6.79258 43.0636 7.88391V37.3749C43.0636 38.4252 42.6631 39.3481 41.8621 40.1434C41.0614 40.9384 40.1321 41.3359 39.0741 41.3359H30.6396L24.3286 47.6469ZM9.58307 37.3749H19.6716L24.3286 42.0339L29.0156 37.3749H39.0741V7.88391H9.58307V37.3749Z" fill="black"/>
</g>
</svg>
