<svg width="49" height="49" viewBox="0 0 49 49" fill="none" xmlns="http://www.w3.org/2000/svg">
<mask id="mask0_11_215" style="mask-type:alpha" maskUnits="userSpaceOnUse" x="0" y="0" width="49" height="49">
<rect x="0.570312" y="0.462891" width="48" height="48" fill="#D9D9D9"/>
</mask>
<g mask="url(#mask0_11_215)">
<path d="M9.82526 43.1693C8.74159 43.1693 7.81042 42.7801 7.03176 42.0018C6.25342 41.2231 5.86426 40.292 5.86426 39.2083V9.71729C5.86426 8.62595 6.25342 7.68828 7.03176 6.90428C7.81042 6.11995 8.74159 5.72778 9.82526 5.72778H20.9013V43.1693H9.82526ZM24.5618 43.1693C24.0704 43.1693 23.6708 43.0125 23.3628 42.6988C23.0551 42.3851 22.9013 41.9873 22.9013 41.5053C22.9013 41.023 23.0581 40.6233 23.3718 40.3063C23.6854 39.989 24.0881 39.8303 24.5798 39.8303C25.0711 39.8303 25.4708 39.9911 25.7788 40.3128C26.0864 40.6345 26.2403 41.0331 26.2403 41.5088C26.2403 42.0001 26.0834 42.3998 25.7698 42.7078C25.4561 43.0155 25.0534 43.1693 24.5618 43.1693ZM24.5648 34.6648C24.0901 34.6648 23.6943 34.5051 23.3773 34.1858C23.0599 33.8661 22.9013 33.4701 22.9013 32.9978C22.9013 32.5251 23.0581 32.1283 23.3718 31.8073C23.6854 31.4863 24.0881 31.3258 24.5798 31.3258C25.0711 31.3258 25.4708 31.4904 25.7788 31.8198C26.0864 32.1495 26.2403 32.5441 26.2403 33.0038C26.2403 33.4795 26.0798 33.8753 25.7588 34.1913C25.4374 34.507 25.0394 34.6648 24.5648 34.6648ZM24.5618 26.1323C24.0704 26.1323 23.6708 25.9755 23.3628 25.6618C23.0551 25.3481 22.9013 24.9455 22.9013 24.4538C22.9013 23.9625 23.0581 23.5628 23.3718 23.2548C23.6854 22.9471 24.0881 22.7933 24.5798 22.7933C25.0711 22.7933 25.4708 22.9501 25.7788 23.2638C26.0864 23.5775 26.2403 23.9801 26.2403 24.4718C26.2403 24.9631 26.0834 25.3628 25.7698 25.6708C25.4561 25.9785 25.0534 26.1323 24.5618 26.1323ZM24.5618 17.5998C24.0704 17.5998 23.6708 17.443 23.3628 17.1293C23.0551 16.8156 22.9013 16.4176 22.9013 15.9353C22.9013 15.4533 23.0581 15.0536 23.3718 14.7363C23.6854 14.4193 24.0881 14.2608 24.5798 14.2608C25.0711 14.2608 25.4708 14.4216 25.7788 14.7433C26.0864 15.0649 26.2403 15.4635 26.2403 15.9388C26.2403 16.4305 26.0834 16.8301 25.7698 17.1378C25.4561 17.4458 25.0534 17.5998 24.5618 17.5998ZM24.5618 9.06729C24.0704 9.06729 23.6708 8.91045 23.3628 8.59678C23.0551 8.28312 22.9013 7.88512 22.9013 7.40278C22.9013 6.92078 23.0581 6.52112 23.3718 6.20378C23.6854 5.88645 24.0881 5.72778 24.5798 5.72778C25.0711 5.72778 25.4708 5.88862 25.7788 6.21028C26.0864 6.53195 26.2403 6.93062 26.2403 7.40628C26.2403 7.89795 26.0834 8.29762 25.7698 8.60528C25.4561 8.91328 25.0534 9.06729 24.5618 9.06729ZM28.8563 38.8778C28.3816 38.8778 27.9856 38.7196 27.6683 38.4033C27.3509 38.087 27.1923 37.695 27.1923 37.2273C27.1923 36.7436 27.3533 36.3413 27.6753 36.0203C27.9969 35.6993 28.3954 35.5388 28.8708 35.5388C29.3624 35.5388 29.7621 35.7023 30.0698 36.0293C30.3778 36.356 30.5318 36.7565 30.5318 37.2308C30.5318 37.7051 30.3711 38.0983 30.0498 38.4103C29.7288 38.722 29.3309 38.8778 28.8563 38.8778ZM28.8673 30.3453C28.3853 30.3453 27.9856 30.1885 27.6683 29.8748C27.3509 29.5611 27.1923 29.1633 27.1923 28.6813C27.1923 28.1989 27.3533 27.7993 27.6753 27.4823C27.9969 27.165 28.3954 27.0063 28.8708 27.0063C29.3624 27.0063 29.7621 27.1671 30.0698 27.4888C30.3778 27.8104 30.5318 28.2091 30.5318 28.6848C30.5318 29.1761 30.3749 29.5758 30.0613 29.8838C29.7476 30.1915 29.3496 30.3453 28.8673 30.3453ZM28.8673 21.8413C28.3853 21.8413 27.9856 21.6803 27.6683 21.3583C27.3509 21.0366 27.1923 20.6381 27.1923 20.1628C27.1923 19.6711 27.3533 19.2715 27.6753 18.9638C27.9969 18.6558 28.3954 18.5018 28.8708 18.5018C29.3624 18.5018 29.7621 18.6586 30.0698 18.9723C30.3778 19.286 30.5318 19.684 30.5318 20.1663C30.5318 20.6483 30.3749 21.0479 30.0613 21.3653C29.7476 21.6826 29.3496 21.8413 28.8673 21.8413ZM28.8563 13.3083C28.3816 13.3083 27.9856 13.1501 27.6683 12.8338C27.3509 12.5174 27.1923 12.1255 27.1923 11.6578C27.1923 11.1741 27.3533 10.7718 27.6753 10.4508C27.9969 10.1298 28.3954 9.96928 28.8708 9.96928C29.3624 9.96928 29.7621 10.1328 30.0698 10.4598C30.3778 10.7865 30.5318 11.1869 30.5318 11.6613C30.5318 12.1356 30.3711 12.5286 30.0498 12.8403C29.7288 13.1523 29.3309 13.3083 28.8563 13.3083ZM33.0948 43.1693C32.6031 43.1693 32.2034 43.0125 31.8958 42.6988C31.5878 42.3851 31.4338 41.9873 31.4338 41.5053C31.4338 41.023 31.5906 40.6233 31.9043 40.3063C32.2179 39.989 32.6159 39.8303 33.0983 39.8303C33.5803 39.8303 33.9799 39.9911 34.2973 40.3128C34.6143 40.6345 34.7728 41.0331 34.7728 41.5088C34.7728 42.0001 34.6119 42.3998 34.2903 42.7078C33.9686 43.0155 33.5701 43.1693 33.0948 43.1693ZM33.0978 34.6648C32.6231 34.6648 32.2271 34.5051 31.9098 34.1858C31.5924 33.8661 31.4338 33.4701 31.4338 32.9978C31.4338 32.5251 31.5906 32.1283 31.9043 31.8073C32.2179 31.4863 32.6159 31.3258 33.0983 31.3258C33.5803 31.3258 33.9799 31.4904 34.2973 31.8198C34.6143 32.1495 34.7728 32.5441 34.7728 33.0038C34.7728 33.4795 34.6123 33.8753 34.2913 34.1913C33.9703 34.507 33.5724 34.6648 33.0978 34.6648ZM33.0948 26.1323C32.6031 26.1323 32.2034 25.9755 31.8958 25.6618C31.5878 25.3481 31.4338 24.9455 31.4338 24.4538C31.4338 23.9625 31.5906 23.5628 31.9043 23.2548C32.2179 22.9471 32.6159 22.7933 33.0983 22.7933C33.5803 22.7933 33.9799 22.9501 34.2973 23.2638C34.6143 23.5775 34.7728 23.9801 34.7728 24.4718C34.7728 24.9631 34.6119 25.3628 34.2903 25.6708C33.9686 25.9785 33.5701 26.1323 33.0948 26.1323ZM33.0948 17.5998C32.6031 17.5998 32.2034 17.443 31.8958 17.1293C31.5878 16.8156 31.4338 16.4176 31.4338 15.9353C31.4338 15.4533 31.5906 15.0536 31.9043 14.7363C32.2179 14.4193 32.6159 14.2608 33.0983 14.2608C33.5803 14.2608 33.9799 14.4216 34.2973 14.7433C34.6143 15.0649 34.7728 15.4635 34.7728 15.9388C34.7728 16.4305 34.6119 16.8301 34.2903 17.1378C33.9686 17.4458 33.5701 17.5998 33.0948 17.5998ZM33.0948 9.06729C32.6031 9.06729 32.2034 8.91045 31.8958 8.59678C31.5878 8.28312 31.4338 7.88512 31.4338 7.40278C31.4338 6.92078 31.5906 6.52112 31.9043 6.20378C32.2179 5.88645 32.6159 5.72778 33.0983 5.72778C33.5803 5.72778 33.9799 5.88862 34.2973 6.21028C34.6143 6.53195 34.7728 6.93062 34.7728 7.40628C34.7728 7.89795 34.6119 8.29762 34.2903 8.60528C33.9686 8.91328 33.5701 9.06729 33.0948 9.06729ZM37.3723 38.9063C36.8979 38.9063 36.5049 38.7481 36.1933 38.4318C35.8813 38.1155 35.7253 37.7234 35.7253 37.2558C35.7253 36.7721 35.8834 36.3698 36.1998 36.0488C36.5161 35.7278 36.9081 35.5673 37.3758 35.5673C37.8594 35.5673 38.2618 35.7306 38.5828 36.0573C38.9038 36.3843 39.0643 36.785 39.0643 37.2593C39.0643 37.7333 38.9008 38.1263 38.5738 38.4383C38.2471 38.7503 37.8466 38.9063 37.3723 38.9063ZM37.3723 30.3738C36.8979 30.3738 36.5049 30.2131 36.1933 29.8918C35.8813 29.5708 35.7253 29.173 35.7253 28.6983C35.7253 28.2236 35.8834 27.8276 36.1998 27.5103C36.5161 27.193 36.9081 27.0343 37.3758 27.0343C37.8594 27.0343 38.2618 27.1953 38.5828 27.5173C38.9038 27.839 39.0643 28.2374 39.0643 28.7128C39.0643 29.2045 38.9008 29.6041 38.5738 29.9118C38.2471 30.2198 37.8466 30.3738 37.3723 30.3738ZM37.3723 21.8413C36.8979 21.8413 36.5049 21.6806 36.1933 21.3593C35.8813 21.0383 35.7253 20.6405 35.7253 20.1658C35.7253 19.6911 35.8834 19.2951 36.1998 18.9778C36.5161 18.6604 36.9081 18.5018 37.3758 18.5018C37.8594 18.5018 38.2618 18.6586 38.5828 18.9723C38.9038 19.286 39.0643 19.684 39.0643 20.1663C39.0643 20.6483 38.9008 21.0479 38.5738 21.3653C38.2471 21.6826 37.8466 21.8413 37.3723 21.8413ZM37.3888 13.3083C36.9141 13.3083 36.5181 13.1501 36.2008 12.8338C35.8838 12.5174 35.7253 12.1255 35.7253 11.6578C35.7253 11.1741 35.8821 10.7718 36.1958 10.4508C36.5094 10.1298 36.9119 9.96928 37.4033 9.96928C37.8949 9.96928 38.2948 10.1328 38.6028 10.4598C38.9104 10.7865 39.0643 11.1869 39.0643 11.6613C39.0643 12.1356 38.9038 12.5286 38.5828 12.8403C38.2614 13.1523 37.8634 13.3083 37.3888 13.3083ZM41.6273 43.1693C41.1356 43.1693 40.7359 43.0125 40.4283 42.6988C40.1203 42.3851 39.9663 41.9873 39.9663 41.5053C39.9663 41.023 40.1231 40.6233 40.4368 40.3063C40.7504 39.989 41.1484 39.8303 41.6308 39.8303C42.1128 39.8303 42.5124 39.9911 42.8298 40.3128C43.1471 40.6345 43.3058 41.0331 43.3058 41.5088C43.3058 42.0001 43.1449 42.3998 42.8233 42.7078C42.5016 43.0155 42.1029 43.1693 41.6273 43.1693ZM41.6273 34.6648C41.1356 34.6648 40.7359 34.504 40.4283 34.1823C40.1203 33.8606 39.9663 33.4621 39.9663 32.9868C39.9663 32.4951 40.1231 32.0955 40.4368 31.7878C40.7504 31.4798 41.1484 31.3258 41.6308 31.3258C42.1128 31.3258 42.5124 31.4826 42.8298 31.7963C43.1471 32.11 43.3058 32.5079 43.3058 32.9903C43.3058 33.4723 43.1449 33.872 42.8233 34.1893C42.5016 34.5063 42.1029 34.6648 41.6273 34.6648ZM41.6273 26.1323C41.1356 26.1323 40.7359 25.969 40.4283 25.6423C40.1203 25.3153 39.9663 24.9145 39.9663 24.4398C39.9663 23.9651 40.1231 23.5673 40.4368 23.2463C40.7504 22.9253 41.1484 22.7648 41.6308 22.7648C42.1128 22.7648 42.5124 22.9256 42.8298 23.2473C43.1471 23.569 43.3058 23.9676 43.3058 24.4433C43.3058 24.9273 43.1449 25.3298 42.8233 25.6508C42.5016 25.9718 42.1029 26.1323 41.6273 26.1323ZM41.6273 17.5998C41.1356 17.5998 40.7359 17.4363 40.4283 17.1093C40.1203 16.7826 39.9663 16.3821 39.9663 15.9078C39.9663 15.4335 40.1231 15.0403 40.4368 14.7283C40.7504 14.4166 41.1484 14.2608 41.6308 14.2608C42.1128 14.2608 42.5124 14.419 42.8298 14.7353C43.1471 15.0516 43.3058 15.4436 43.3058 15.9113C43.3058 16.3949 43.1449 16.7973 42.8233 17.1183C42.5016 17.4393 42.1029 17.5998 41.6273 17.5998ZM41.6273 9.06729C41.1356 9.06729 40.7359 8.91045 40.4283 8.59678C40.1203 8.28312 39.9663 7.88512 39.9663 7.40278C39.9663 6.92078 40.1231 6.52112 40.4368 6.20378C40.7504 5.88645 41.1484 5.72778 41.6308 5.72778C42.1128 5.72778 42.5124 5.88862 42.8298 6.21028C43.1471 6.53195 43.3058 6.93062 43.3058 7.40628C43.3058 7.89795 43.1449 8.29762 42.8233 8.60528C42.5016 8.91328 42.1029 9.06729 41.6273 9.06729Z" fill="#1C1B1F"/>
</g>
</svg>
