<svg width="29" height="28" viewBox="0 0 29 28" fill="none" xmlns="http://www.w3.org/2000/svg">
<path fill-rule="evenodd" clip-rule="evenodd" d="M14.9173 0.63916C7.19655 0.63916 0.955078 6.76589 0.955078 14.3455C0.955078 20.4043 4.95421 25.5329 10.5021 27.3481C11.1957 27.4845 11.4498 27.0532 11.4498 26.6903C11.4498 26.3725 11.4269 25.2834 11.4269 24.1485C7.54294 24.9656 6.73414 22.5146 6.73414 22.5146C6.10996 20.9262 5.18513 20.5179 5.18513 20.5179C3.91391 19.6782 5.27773 19.6783 5.27773 19.6783C6.68784 19.769 7.42776 21.0852 7.42776 21.0852C8.67583 23.1727 10.687 22.5829 11.4961 22.2197C11.6115 21.3347 11.9816 20.722 12.3746 20.3817C9.27686 20.064 6.01765 18.884 6.01765 13.6192C6.01765 12.1215 6.57209 10.8961 7.45063 9.94316C7.31202 9.60284 6.82645 8.19565 7.58952 6.31223C7.58952 6.31223 8.76843 5.94909 11.4266 7.71915C12.5647 7.41913 13.7383 7.2665 14.9173 7.26522C16.0962 7.26522 17.298 7.42423 18.4077 7.71915C21.0662 5.94909 22.2451 6.31223 22.2451 6.31223C23.0082 8.19565 22.5223 9.60284 22.3837 9.94316C23.2854 10.8961 23.817 12.1215 23.817 13.6192C23.817 18.884 20.5578 20.0411 17.4369 20.3817C17.9456 20.8128 18.3846 21.6296 18.3846 22.9232C18.3846 24.7612 18.3617 26.2364 18.3617 26.69C18.3617 27.0532 18.6161 27.4845 19.3094 27.3484C24.8573 25.5326 28.8564 20.4043 28.8564 14.3455C28.8792 6.76589 22.6149 0.63916 14.9173 0.63916Z" fill="#24292F"/>
</svg>
