<svg width="735" height="868" viewBox="0 0 735 868" fill="none" xmlns="http://www.w3.org/2000/svg">
<path d="M0.150391 482.254V386.371H183.578L325.318 400.962L335.74 380.118L223.182 290.488L93.9488 161.255L160.65 94.5536L289.883 223.787L379.513 336.345L400.357 325.923L385.766 184.183V0.755127H481.649V184.183L467.058 325.923L487.902 336.345L577.532 223.787L706.765 94.5536L773.466 161.255L644.233 290.488L531.675 380.118L542.097 400.962L683.837 386.371H867.265V482.254H683.837L542.097 467.663L531.675 488.507L644.233 578.137L773.466 707.37L706.765 774.071L577.532 644.838L487.902 532.28L467.058 542.702L481.649 684.441V867.87H385.766V684.441L400.357 542.702L379.513 532.28L289.883 644.838L160.65 774.071L93.9488 707.37L223.182 578.137L335.74 488.507L325.318 467.663L183.578 482.254H0.150391Z" fill="#FFA600" fill-opacity="0.1"/>
</svg>
