<svg width="161" height="27" viewBox="0 0 161 27" fill="none" xmlns="http://www.w3.org/2000/svg">
<path d="M9.19623 26.2488C7.70513 26.2488 6.3025 25.8741 4.98832 25.1247C3.69941 24.3494 2.66323 23.2253 1.87977 21.7523C1.09632 20.2794 0.70459 18.4963 0.70459 16.4031V15.7829C0.70459 13.6898 1.09632 11.9067 1.87977 10.4337C2.66323 8.96077 3.69941 7.84958 4.98832 7.10017C6.27723 6.32493 7.67986 5.9373 9.19623 5.9373C10.3335 5.9373 11.2812 6.07943 12.0394 6.36369C12.8229 6.62211 13.4547 6.95805 13.9349 7.37151C14.415 7.78498 14.7815 8.22428 15.0342 8.68943H15.7166V0.248779H20.4931V25.7061H15.7924V23.3804H15.11C14.6804 24.1039 14.0107 24.7629 13.1009 25.3572C12.2163 25.9516 10.9148 26.2488 9.19623 26.2488ZM10.6368 21.9849C12.1026 21.9849 13.3283 21.5069 14.314 20.5507C15.2996 19.5687 15.7924 18.1474 15.7924 16.2869V15.8992C15.7924 14.0386 15.2996 12.6303 14.314 11.6741C13.3536 10.6922 12.1279 10.2012 10.6368 10.2012C9.17095 10.2012 7.94522 10.6922 6.95959 11.6741C5.97395 12.6303 5.48113 14.0386 5.48113 15.8992V16.2869C5.48113 18.1474 5.97395 19.5687 6.95959 20.5507C7.94522 21.5069 9.17095 21.9849 10.6368 21.9849Z" fill="black"/>
<path d="M33.219 26.2488C31.3489 26.2488 29.6682 25.8612 28.1771 25.0859C26.686 24.3107 25.5109 23.1866 24.6516 21.7136C23.7923 20.2406 23.3627 18.4705 23.3627 16.4031V15.7829C23.3627 13.7156 23.7923 11.9455 24.6516 10.4725C25.5109 8.99953 26.686 7.87542 28.1771 7.10017C29.6682 6.32493 31.3489 5.9373 33.219 5.9373C35.0892 5.9373 36.7699 6.32493 38.2609 7.10017C39.752 7.87542 40.9272 8.99953 41.7865 10.4725C42.6458 11.9455 43.0754 13.7156 43.0754 15.7829V16.4031C43.0754 18.4705 42.6458 20.2406 41.7865 21.7136C40.9272 23.1866 39.752 24.3107 38.2609 25.0859C36.7699 25.8612 35.0892 26.2488 33.219 26.2488ZM33.219 21.9074C34.6849 21.9074 35.8979 21.4293 36.8583 20.4732C37.8187 19.4912 38.2989 18.0958 38.2989 16.2869V15.8992C38.2989 14.0903 37.8187 12.7078 36.8583 11.7517C35.9232 10.7697 34.7101 10.2787 33.219 10.2787C31.7532 10.2787 30.5401 10.7697 29.5798 11.7517C28.6194 12.7078 28.1392 14.0903 28.1392 15.8992V16.2869C28.1392 18.0958 28.6194 19.4912 29.5798 20.4732C30.5401 21.4293 31.7532 21.9074 33.219 21.9074Z" fill="black"/>
<path d="M52.5414 25.7061C51.303 25.7061 50.2921 25.3185 49.5087 24.5432C48.7505 23.7421 48.3714 22.6826 48.3714 21.3647V10.5113H43.6707V6.47998H48.3714V1.34874H53.148V6.47998H58.3036V10.5113H53.148V20.5119C53.148 21.2872 53.5018 21.6748 54.2094 21.6748H57.8487V25.7061H52.5414Z" fill="black"/>
<path d="M61.1109 25.7061V0.248779H65.8875V13.5735H66.5698L72.7869 6.47998H79.004L70.3228 15.7829L79.3073 25.7061H73.166L66.5698 18.0699H65.8875V25.7061H61.1109Z" fill="black"/>
<path d="M88.4123 26.2488C86.5421 26.2488 84.8867 25.8482 83.4462 25.0471C82.0309 24.2202 80.9189 23.0703 80.1102 21.5973C79.3267 20.0985 78.935 18.3413 78.935 16.3256V15.8605C78.935 13.8448 79.3267 12.1005 80.1102 10.6275C80.8936 9.12874 81.993 7.97879 83.4083 7.1777C84.8236 6.35077 86.4663 5.9373 88.3365 5.9373C90.1814 5.9373 91.7862 6.36369 93.1509 7.21646C94.5156 8.04339 95.5771 9.20626 96.3353 10.7051C97.0935 12.178 97.4726 13.8965 97.4726 15.8605V17.5272H83.7874C83.8379 18.8452 84.3181 19.9176 85.2279 20.7445C86.1377 21.5715 87.2497 21.9849 88.5639 21.9849C89.9034 21.9849 90.889 21.6877 91.5208 21.0934C92.1526 20.499 92.6328 19.8401 92.9614 19.1165L96.866 21.2097C96.5122 21.8816 95.9941 22.618 95.3117 23.4191C94.6546 24.1944 93.7701 24.8663 92.6581 25.4348C91.5461 25.9774 90.1308 26.2488 88.4123 26.2488ZM83.8253 13.8836H92.6202C92.5191 12.7724 92.0768 11.8809 91.2934 11.209C90.5352 10.5371 89.5369 10.2012 88.2986 10.2012C87.0096 10.2012 85.9861 10.5371 85.2279 11.209C84.4697 11.8809 84.0022 12.7724 83.8253 13.8836Z" fill="black"/>
<path d="M100.208 25.7061V6.47998H104.908V8.65067H105.591C105.869 7.87542 106.324 7.30691 106.955 6.94513C107.613 6.58334 108.371 6.40245 109.23 6.40245H111.505V10.7438H109.154C107.941 10.7438 106.943 11.0798 106.159 11.7517C105.376 12.3977 104.984 13.4055 104.984 14.7751V25.7061H100.208Z" fill="black"/>
<path d="M113.722 25.7061V6.47998H118.422V8.99953H119.105C119.408 8.32765 119.977 7.69453 120.811 7.10017C121.645 6.47998 122.908 6.16988 124.602 6.16988C126.067 6.16988 127.344 6.51874 128.43 7.21646C129.542 7.88834 130.402 8.83156 131.008 10.0461C131.615 11.2348 131.918 12.6303 131.918 14.2324V25.7061H127.141V14.6201C127.141 13.1729 126.788 12.0876 126.08 11.364C125.398 10.6405 124.412 10.2787 123.123 10.2787C121.657 10.2787 120.52 10.7826 119.711 11.7904C118.903 12.7724 118.498 14.1549 118.498 15.938V25.7061H113.722Z" fill="black"/>
<path d="M144.133 26.2488C142.263 26.2488 140.607 25.8482 139.167 25.0471C137.751 24.2202 136.639 23.0703 135.831 21.5973C135.047 20.0985 134.655 18.3413 134.655 16.3256V15.8605C134.655 13.8448 135.047 12.1005 135.831 10.6275C136.614 9.12874 137.713 7.97879 139.129 7.1777C140.544 6.35077 142.187 5.9373 144.057 5.9373C145.902 5.9373 147.507 6.36369 148.871 7.21646C150.236 8.04339 151.298 9.20626 152.056 10.7051C152.814 12.178 153.193 13.8965 153.193 15.8605V17.5272H139.508C139.558 18.8452 140.039 19.9176 140.948 20.7445C141.858 21.5715 142.97 21.9849 144.284 21.9849C145.624 21.9849 146.609 21.6877 147.241 21.0934C147.873 20.499 148.353 19.8401 148.682 19.1165L152.586 21.2097C152.233 21.8816 151.715 22.618 151.032 23.4191C150.375 24.1944 149.491 24.8663 148.379 25.4348C147.267 25.9774 145.851 26.2488 144.133 26.2488ZM139.546 13.8836H148.341C148.24 12.7724 147.797 11.8809 147.014 11.209C146.256 10.5371 145.257 10.2012 144.019 10.2012C142.73 10.2012 141.707 10.5371 140.948 11.209C140.19 11.8809 139.723 12.7724 139.546 13.8836Z" fill="black"/>
<path d="M155.928 25.7061V0.248779H160.705V25.7061H155.928Z" fill="black"/>
</svg>
