<svg width="306" height="40" viewBox="0 0 306 40" fill="none" xmlns="http://www.w3.org/2000/svg">
<g clip-path="url(#clip0_10_12)">
<path fill-rule="evenodd" clip-rule="evenodd" d="M20.666 40.002H0.811523V25.5298H20.4722C21.1445 25.5298 21.8168 25.6579 22.4286 25.9813C23.1373 26.3352 23.6824 26.8233 24.0942 27.4334L29.9331 37.6774H29.9634C27.0742 39.2272 23.8701 40.002 20.66 40.002H20.666Z" fill="#C71F38"/>
<path fill-rule="evenodd" clip-rule="evenodd" d="M0.811523 18.9343V0.00201416H20.666H20.7932L12.998 18.9343H0.811523Z" fill="#C71F38"/>
<path fill-rule="evenodd" clip-rule="evenodd" d="M35.1963 33.6384V33.6079L30.1933 24.8831L29.6481 23.9129C28.461 22.1009 27.1164 20.9721 25.3841 20.0996C23.7487 19.2577 22.0165 18.9038 20.3145 18.9343H20.2842L27.4677 1.19788C29.7148 2.03985 31.8589 3.29672 33.7547 4.98067C41.9982 12.2534 42.834 24.9136 35.5839 33.1869C35.4567 33.3455 35.3295 33.4798 35.1963 33.6384Z" fill="#C71F38"/>
</g>
<path d="M67.3032 33.002C65.8121 33.002 64.4094 32.6273 63.0953 31.8779C61.8063 31.1027 60.7702 29.9785 59.9867 28.5056C59.2033 27.0326 58.8115 25.2495 58.8115 23.1564V22.5362C58.8115 20.443 59.2033 18.6599 59.9867 17.187C60.7702 15.714 61.8063 14.6028 63.0953 13.8534C64.3842 13.0782 65.7868 12.6905 67.3032 12.6905C68.4404 12.6905 69.3882 12.8327 70.1463 13.1169C70.9298 13.3753 71.5616 13.7113 72.0418 14.1247C72.522 14.5382 72.8884 14.9775 73.1412 15.4427H73.8235V7.00201H78.6001V32.4593H73.8993V30.1336H73.217C72.7873 30.8572 72.1176 31.5161 71.2078 32.1105C70.3232 32.7048 69.0217 33.002 67.3032 33.002ZM68.7437 28.7382C70.2095 28.7382 71.4352 28.2601 72.4209 27.3039C73.4065 26.322 73.8993 24.9007 73.8993 23.0401V22.6525C73.8993 20.7919 73.4065 19.3835 72.4209 18.4274C71.4605 17.4454 70.2348 16.9544 68.7437 16.9544C67.2779 16.9544 66.0522 17.4454 65.0665 18.4274C64.0809 19.3835 63.5881 20.7919 63.5881 22.6525V23.0401C63.5881 24.9007 64.0809 26.322 65.0665 27.3039C66.0522 28.2601 67.2779 28.7382 68.7437 28.7382Z" fill="black"/>
<path d="M91.326 33.002C89.4558 33.002 87.7751 32.6144 86.2841 31.8391C84.793 31.0639 83.6178 29.9398 82.7585 28.4668C81.8992 26.9938 81.4696 25.2237 81.4696 23.1564V22.5362C81.4696 20.4689 81.8992 18.6987 82.7585 17.2257C83.6178 15.7528 84.793 14.6287 86.2841 13.8534C87.7751 13.0782 89.4558 12.6905 91.326 12.6905C93.1961 12.6905 94.8768 13.0782 96.3679 13.8534C97.859 14.6287 99.0341 15.7528 99.8934 17.2257C100.753 18.6987 101.182 20.4689 101.182 22.5362V23.1564C101.182 25.2237 100.753 26.9938 99.8934 28.4668C99.0341 29.9398 97.859 31.0639 96.3679 31.8391C94.8768 32.6144 93.1961 33.002 91.326 33.002ZM91.326 28.6606C92.7918 28.6606 94.0049 28.1826 94.9652 27.2264C95.9256 26.2444 96.4058 24.849 96.4058 23.0401V22.6525C96.4058 20.8436 95.9256 19.461 94.9652 18.5049C94.0301 17.5229 92.8171 17.0319 91.326 17.0319C89.8601 17.0319 88.6471 17.5229 87.6867 18.5049C86.7263 19.461 86.2461 20.8436 86.2461 22.6525V23.0401C86.2461 24.849 86.7263 26.2444 87.6867 27.2264C88.6471 28.1826 89.8601 28.6606 91.326 28.6606Z" fill="black"/>
<path d="M110.648 32.4593C109.41 32.4593 108.399 32.0717 107.616 31.2965C106.857 30.4954 106.478 29.4359 106.478 28.118V17.2645H101.778V13.2332H106.478V8.10197H111.255V13.2332H116.411V17.2645H111.255V27.2652C111.255 28.0404 111.609 28.4281 112.316 28.4281H115.956V32.4593H110.648Z" fill="black"/>
<path d="M119.218 32.4593V7.00201H123.994V20.3267H124.677L130.894 13.2332H137.111L128.43 22.5362L137.414 32.4593H131.273L124.677 24.8232H123.994V32.4593H119.218Z" fill="black"/>
<path d="M146.519 33.002C144.649 33.002 142.994 32.6015 141.553 31.8004C140.138 30.9734 139.026 29.8235 138.217 28.3505C137.434 26.8517 137.042 25.0945 137.042 23.0788V22.6137C137.042 20.5981 137.434 18.8538 138.217 17.3808C139.001 15.882 140.1 14.732 141.515 13.9309C142.93 13.104 144.573 12.6905 146.443 12.6905C148.288 12.6905 149.893 13.1169 151.258 13.9697C152.623 14.7966 153.684 15.9595 154.442 17.4583C155.2 18.9313 155.579 20.6497 155.579 22.6137V24.2805H141.894C141.945 25.5984 142.425 26.6708 143.335 27.4978C144.245 28.3247 145.357 28.7382 146.671 28.7382C148.01 28.7382 148.996 28.441 149.628 27.8466C150.26 27.2523 150.74 26.5933 151.068 25.8697L154.973 27.9629C154.619 28.6348 154.101 29.3713 153.419 30.1724C152.762 30.9476 151.877 31.6195 150.765 32.188C149.653 32.7307 148.238 33.002 146.519 33.002ZM141.932 20.6368H150.727C150.626 19.5256 150.184 18.6341 149.4 17.9622C148.642 17.2903 147.644 16.9544 146.405 16.9544C145.117 16.9544 144.093 17.2903 143.335 17.9622C142.577 18.6341 142.109 19.5256 141.932 20.6368Z" fill="black"/>
<path d="M158.315 32.4593V13.2332H163.015V15.4039H163.698C163.976 14.6287 164.431 14.0601 165.062 13.6984C165.719 13.3366 166.478 13.1557 167.337 13.1557H169.611V17.4971H167.261C166.048 17.4971 165.05 17.833 164.266 18.5049C163.483 19.1509 163.091 20.1588 163.091 21.5284V32.4593H158.315Z" fill="black"/>
<path d="M171.829 32.4593V13.2332H176.529V15.7528H177.212C177.515 15.0809 178.084 14.4478 178.918 13.8534C179.752 13.2332 181.015 12.9231 182.708 12.9231C184.174 12.9231 185.451 13.272 186.537 13.9697C187.649 14.6416 188.509 15.5848 189.115 16.7993C189.722 17.9881 190.025 19.3835 190.025 20.9857V32.4593H185.248V21.3733C185.248 19.9262 184.895 18.8408 184.187 18.1173C183.505 17.3937 182.519 17.0319 181.23 17.0319C179.764 17.0319 178.627 17.5358 177.818 18.5437C177.009 19.5256 176.605 20.9082 176.605 22.6912V32.4593H171.829Z" fill="black"/>
<path d="M202.24 33.002C200.369 33.002 198.714 32.6015 197.274 31.8004C195.858 30.9734 194.746 29.8235 193.938 28.3505C193.154 26.8517 192.762 25.0945 192.762 23.0788V22.6137C192.762 20.5981 193.154 18.8538 193.938 17.3808C194.721 15.882 195.82 14.732 197.236 13.9309C198.651 13.104 200.294 12.6905 202.164 12.6905C204.009 12.6905 205.614 13.1169 206.978 13.9697C208.343 14.7966 209.404 15.9595 210.163 17.4583C210.921 18.9313 211.3 20.6497 211.3 22.6137V24.2805H197.615C197.665 25.5984 198.145 26.6708 199.055 27.4978C199.965 28.3247 201.077 28.7382 202.391 28.7382C203.731 28.7382 204.716 28.441 205.348 27.8466C205.98 27.2523 206.46 26.5933 206.789 25.8697L210.693 27.9629C210.34 28.6348 209.821 29.3713 209.139 30.1724C208.482 30.9476 207.597 31.6195 206.485 32.188C205.373 32.7307 203.958 33.002 202.24 33.002ZM197.653 20.6368H206.448C206.346 19.5256 205.904 18.6341 205.121 17.9622C204.363 17.2903 203.364 16.9544 202.126 16.9544C200.837 16.9544 199.813 17.2903 199.055 17.9622C198.297 18.6341 197.83 19.5256 197.653 20.6368Z" fill="black"/>
<path d="M214.035 32.4593V7.00201H218.812V32.4593H214.035Z" fill="black"/>
<path d="M281.007 30.002C280.783 30.002 280.631 29.89 280.551 29.666L279.879 27.434C279.863 27.354 279.815 27.314 279.735 27.314H273.855C273.775 27.314 273.727 27.354 273.711 27.434L273.039 29.666C272.959 29.89 272.807 30.002 272.583 30.002H269.799C269.655 30.002 269.551 29.962 269.487 29.882C269.423 29.786 269.415 29.674 269.463 29.546L274.575 13.538C274.655 13.314 274.807 13.202 275.031 13.202H278.559C278.783 13.202 278.935 13.314 279.015 13.538L284.127 29.546C284.143 29.578 284.151 29.626 284.151 29.69C284.151 29.786 284.119 29.866 284.055 29.93C283.991 29.978 283.903 30.002 283.791 30.002H281.007ZM274.551 24.53C274.535 24.642 274.575 24.698 274.671 24.698H278.919C279.015 24.698 279.055 24.642 279.039 24.53L276.879 17.21C276.863 17.146 276.831 17.114 276.783 17.114C276.751 17.114 276.719 17.146 276.687 17.21L274.551 24.53ZM293.245 13.178C294.301 13.178 295.229 13.394 296.029 13.826C296.829 14.258 297.445 14.874 297.877 15.674C298.325 16.458 298.549 17.362 298.549 18.386C298.549 19.394 298.317 20.282 297.853 21.05C297.405 21.818 296.765 22.418 295.933 22.85C295.117 23.266 294.173 23.474 293.101 23.474H289.717C289.621 23.474 289.573 23.522 289.573 23.618V29.594C289.573 29.866 289.437 30.002 289.165 30.002H286.597C286.325 30.002 286.189 29.866 286.189 29.594V13.586C286.189 13.314 286.325 13.178 286.597 13.178H293.245ZM292.741 20.762C293.477 20.762 294.069 20.554 294.517 20.138C294.965 19.706 295.189 19.146 295.189 18.458C295.189 17.754 294.965 17.186 294.517 16.754C294.069 16.322 293.477 16.106 292.741 16.106H289.717C289.621 16.106 289.573 16.154 289.573 16.25V20.618C289.573 20.714 289.621 20.762 289.717 20.762H292.741ZM301.037 30.002C300.765 30.002 300.629 29.866 300.629 29.594V13.61C300.629 13.338 300.765 13.202 301.037 13.202H303.605C303.877 13.202 304.013 13.338 304.013 13.61V29.594C304.013 29.866 303.877 30.002 303.605 30.002H301.037Z" fill="black"/>
<line x1="246.502" y1="0.00201414" x2="246.502" y2="40.002" stroke="black"/>
<defs>
<clipPath id="clip0_10_12">
<rect width="198" height="40" fill="white" transform="translate(0.811523 0.00201416)"/>
</clipPath>
</defs>
</svg>
