<svg width="741" height="530" viewBox="0 0 741 530" fill="none" xmlns="http://www.w3.org/2000/svg">
<path d="M147.251 515.369C147.251 520.904 145.669 524.857 142.507 527.229C139.344 529.601 134.995 529.601 129.46 527.229L-341.391 309.001C-349.298 305.048 -353.251 298.722 -353.251 290.025V240.212C-353.251 231.514 -349.298 225.189 -341.391 221.235L129.46 3.0073C132.623 1.42594 134.995 0.635254 136.576 0.635254C143.693 0.635254 147.251 5.37934 147.251 14.8675V64.6805C147.251 72.5873 143.297 78.5174 135.39 82.4708L-260.741 261.56C-265.485 263.932 -265.485 266.304 -260.741 268.676L135.39 447.766C143.297 451.719 147.251 457.649 147.251 465.556V515.369Z" fill="#EFF8EE"/>
<path d="M257.551 527.229C254.388 528.811 252.016 529.601 250.435 529.601C243.318 529.601 239.76 524.857 239.76 515.369V465.556C239.76 457.649 243.714 451.719 251.621 447.766L647.752 268.676C652.496 266.304 652.496 263.932 647.752 261.56L251.621 82.4708C243.714 78.5174 239.76 72.5873 239.76 64.6805V14.8675C239.76 8.54208 241.342 4.58867 244.504 3.0073C247.667 0.635266 252.016 0.635266 257.551 3.0073L728.402 221.235C736.309 225.189 740.262 231.514 740.262 240.212V290.025C740.262 298.722 736.309 305.048 728.402 309.001L257.551 527.229Z" fill="#EFF8EE"/>
</svg>
