<svg width="20" height="16" viewBox="0 0 20 16" fill="none" xmlns="http://www.w3.org/2000/svg">
<path d="M1.87305 6.7666C1.32076 6.7666 0.873047 7.21432 0.873047 7.7666C0.873047 8.31889 1.32076 8.7666 1.87305 8.7666V6.7666ZM19.6849 8.47371C20.0754 8.08318 20.0754 7.45002 19.6849 7.05949L13.3209 0.695534C12.9304 0.305009 12.2972 0.305009 11.9067 0.695534C11.5162 1.08606 11.5162 1.71922 11.9067 2.10975L17.5636 7.7666L11.9067 13.4235C11.5162 13.814 11.5162 14.4471 11.9067 14.8377C12.2972 15.2282 12.9304 15.2282 13.3209 14.8377L19.6849 8.47371ZM1.87305 8.7666L18.9778 8.7666V6.7666L1.87305 6.7666V8.7666Z" fill="black"/>
</svg>
