<svg width="19" height="15" viewBox="0 0 19 15" fill="none" xmlns="http://www.w3.org/2000/svg">
<path d="M6.40234 0.934083L7.80234 2.35908L4.22734 5.93408L13.9023 5.93408C15.1523 5.93408 16.2148 6.37158 17.0898 7.24658C17.9648 8.12158 18.4023 9.18408 18.4023 10.4341C18.4023 11.6841 17.9648 12.7466 17.0898 13.6216C16.2148 14.4966 15.1523 14.9341 13.9023 14.9341L13.4023 14.9341L13.4023 12.9341L13.9023 12.9341C14.6023 12.9341 15.194 12.6924 15.6773 12.2091C16.1607 11.7257 16.4023 11.1341 16.4023 10.4341C16.4023 9.73408 16.1607 9.14242 15.6773 8.65908C15.194 8.17575 14.6023 7.93408 13.9023 7.93408L4.22734 7.93408L7.80234 11.5341L6.40234 12.9341L0.402343 6.93408L6.40234 0.934083Z" fill="black"/>
</svg>
