<svg width="15" height="20" viewBox="0 0 15 20" fill="none" xmlns="http://www.w3.org/2000/svg">
<path d="M8.36133 1.23535C8.36133 0.683067 7.91361 0.235352 7.36133 0.235352C6.80904 0.235352 6.36133 0.683067 6.36133 1.23535L8.36133 1.23535ZM6.65422 19.0472C7.04475 19.4377 7.67791 19.4377 8.06844 19.0472L14.4324 12.6832C14.8229 12.2927 14.8229 11.6595 14.4324 11.269C14.0419 10.8785 13.4087 10.8785 13.0182 11.269L7.36133 16.9259L1.70447 11.269C1.31395 10.8785 0.680785 10.8785 0.290261 11.269C-0.100264 11.6595 -0.100264 12.2927 0.290261 12.6832L6.65422 19.0472ZM6.36133 1.23535L6.36133 18.3401L8.36133 18.3401L8.36133 1.23535L6.36133 1.23535Z" fill="black"/>
</svg>
