<svg width="49" height="49" viewBox="0 0 49 49" fill="none" xmlns="http://www.w3.org/2000/svg">
<mask id="mask0_11_127" style="mask-type:alpha" maskUnits="userSpaceOnUse" x="0" y="0" width="49" height="49">
<rect x="0.412109" y="0.763672" width="48" height="48" fill="#D9D9D9"/>
</mask>
<g mask="url(#mask0_11_127)">
<path d="M22.4321 43.4701V15.8331H26.3931V43.4701H22.4321ZM14.0191 37.1856V22.0396H17.9801V37.1856H14.0191ZM30.7951 37.1856V22.0396H34.7276V37.1856H30.7951ZM5.70605 31.6071V27.6461H9.66705V31.6071H5.70605ZM39.1301 31.6071V27.6461H43.1191V31.6071H39.1301ZM3.70605 20.4311V16.4986H6.00805C7.51805 16.4986 8.91622 16.1376 10.2026 15.4156C11.4889 14.6939 12.4966 13.6947 13.2256 12.4181C14.4336 10.4237 16.0282 8.86023 18.0096 7.72757C19.9912 6.5949 22.1274 6.02856 24.4181 6.02856C26.7087 6.02856 28.8434 6.5949 30.8221 7.72757C32.8007 8.86023 34.3766 10.4237 35.5496 12.4181C36.3072 13.7004 37.3317 14.7011 38.6231 15.4201C39.9144 16.1391 41.3029 16.4986 42.7886 16.4986H45.1476V20.4311H42.7886C40.5756 20.4311 38.5351 19.9076 36.6671 18.8606C34.7987 17.8132 33.3031 16.3426 32.1801 14.4486C31.3544 13.0576 30.2496 11.9666 28.8656 11.1756C27.4816 10.3849 25.9972 9.98957 24.4126 9.98957C22.8026 9.98957 21.3116 10.3849 19.9396 11.1756C18.5676 11.9666 17.4694 13.0576 16.6451 14.4486C15.5031 16.3426 13.9981 17.8132 12.1301 18.8606C10.2617 19.9076 8.22106 20.4311 6.00805 20.4311H3.70605Z" fill="black"/>
</g>
</svg>
