<svg width="49" height="49" viewBox="0 0 49 49" fill="none" xmlns="http://www.w3.org/2000/svg">
<mask id="mask0_11_209" style="mask-type:alpha" maskUnits="userSpaceOnUse" x="0" y="0" width="49" height="49">
<rect x="0.570312" y="0.171631" width="48" height="48" fill="#D9D9D9"/>
</mask>
<g mask="url(#mask0_11_209)">
<path d="M19.9403 31.478L22.0623 29.328L17.0123 24.228L22.0623 19.178L19.9403 17.028L12.7403 24.253L19.9403 31.478ZM29.2013 31.478L36.4513 24.228L29.2513 17.028L27.1293 19.178L32.1793 24.228L27.0793 29.328L29.2013 31.478ZM9.82526 42.878C8.73592 42.878 7.80342 42.4902 7.02776 41.7145C6.25209 40.9389 5.86426 40.0064 5.86426 38.917V9.42603C5.86426 8.32903 6.25209 7.38986 7.02776 6.60852C7.80342 5.82719 8.73592 5.43652 9.82526 5.43652H19.3688C19.6484 4.26986 20.2664 3.31152 21.2228 2.56152C22.1794 1.81152 23.2954 1.43652 24.5708 1.43652C25.8461 1.43652 26.9621 1.81152 27.9188 2.56152C28.8751 3.31152 29.4931 4.26986 29.7728 5.43652H39.3163C40.4133 5.43652 41.3524 5.82719 42.1338 6.60852C42.9151 7.38986 43.3058 8.32903 43.3058 9.42603V38.917C43.3058 40.0064 42.9151 40.9389 42.1338 41.7145C41.3524 42.4902 40.4133 42.878 39.3163 42.878H9.82526ZM9.82526 38.917H39.3163V9.42603H9.82526V38.917ZM24.5708 8.49102C25.1028 8.49102 25.5558 8.30419 25.9298 7.93052C26.3034 7.55652 26.4903 7.10352 26.4903 6.57152C26.4903 6.03952 26.3034 5.58652 25.9298 5.21252C25.5558 4.83886 25.1028 4.65202 24.5708 4.65202C24.0388 4.65202 23.5858 4.83886 23.2118 5.21252C22.8381 5.58652 22.6513 6.03952 22.6513 6.57152C22.6513 7.10352 22.8381 7.55652 23.2118 7.93052C23.5858 8.30419 24.0388 8.49102 24.5708 8.49102Z" fill="#1C1B1F"/>
</g>
</svg>
