<svg width="49" height="49" viewBox="0 0 49 49" fill="none" xmlns="http://www.w3.org/2000/svg">
<mask id="mask0_11_211" style="mask-type:alpha" maskUnits="userSpaceOnUse" x="0" y="0" width="49" height="49">
<rect x="0.40625" y="0.268555" width="48" height="48" fill="#D9D9D9"/>
</mask>
<g mask="url(#mask0_11_211)">
<path d="M35.1282 43.0405C34.8619 43.0405 34.6005 43.012 34.3442 42.955C34.0882 42.898 33.8482 42.7982 33.6242 42.6555L27.2132 38.9035C26.7449 38.6289 26.3785 38.2625 26.1142 37.8045C25.8499 37.3465 25.7177 36.8462 25.7177 36.3035V28.8205C25.7177 28.2719 25.8499 27.766 26.1142 27.303C26.3785 26.84 26.7449 26.4699 27.2132 26.1925L33.6522 22.4685C33.8822 22.3385 34.1247 22.2467 34.3797 22.193C34.6344 22.139 34.8864 22.112 35.1357 22.112C35.385 22.112 35.627 22.1399 35.8617 22.1955C36.096 22.2509 36.3372 22.3429 36.5852 22.4715L42.9917 26.1925C43.451 26.4692 43.8235 26.8392 44.1092 27.3025C44.3945 27.7655 44.5372 28.2715 44.5372 28.8205V36.3035C44.5372 36.8445 44.3974 37.3432 44.1177 37.7995C43.8377 38.2562 43.4624 38.6242 42.9917 38.9035L36.5807 42.6555C36.3524 42.7822 36.1175 42.878 35.8762 42.943C35.6349 43.008 35.3855 43.0405 35.1282 43.0405ZM20.4007 23.651C17.9897 23.651 16.0202 22.887 14.4922 21.359C12.9642 19.831 12.2002 17.8615 12.2002 15.4505C12.2002 13.0392 12.9642 11.0677 14.4922 9.53604C16.0202 8.00404 17.9897 7.23804 20.4007 7.23804C22.812 7.23804 24.7884 8.00404 26.3297 9.53604C27.871 11.0677 28.6417 13.0392 28.6417 15.4505C28.6417 17.8615 27.871 19.831 26.3297 21.359C24.7884 22.887 22.812 23.651 20.4007 23.651ZM3.7002 41.1425V35.6795C3.7002 34.3055 4.05786 33.1047 4.7732 32.077C5.4882 31.0497 6.3957 30.2765 7.4957 29.7575C9.8957 28.6909 12.1725 27.9149 14.3262 27.4295C16.4799 26.9439 18.5067 26.701 20.4067 26.701H22.0087C21.771 27.1867 21.5457 27.791 21.3327 28.514C21.1197 29.2374 20.9799 29.9629 20.9132 30.6905H20.4722C18.6459 30.6905 16.814 30.8797 14.9767 31.258C13.139 31.6364 11.2349 32.3059 9.2642 33.2665C8.72986 33.5315 8.3292 33.8937 8.0622 34.353C7.79486 34.8127 7.6612 35.2925 7.6612 35.7925V37.1815H20.8282C20.9949 37.9322 21.2704 38.6575 21.6547 39.3575C22.0387 40.0575 22.4444 40.6525 22.8717 41.1425H3.7002ZM20.4007 19.69C21.6294 19.69 22.6452 19.29 23.4482 18.49C24.2509 17.69 24.6522 16.6752 24.6522 15.4455C24.6522 14.2079 24.2527 13.1907 23.4537 12.394C22.6547 11.5974 21.641 11.199 20.4127 11.199C19.184 11.199 18.1682 11.5979 17.3652 12.3955C16.5625 13.1932 16.1612 14.2052 16.1612 15.4315C16.1612 16.6659 16.5607 17.6842 17.3597 18.4865C18.1587 19.2889 19.1724 19.69 20.4007 19.69ZM30.2677 27.8665L35.1417 30.697L39.9872 27.8665L35.1417 25.0575L30.2677 27.8665ZM36.5892 39.1815L41.5852 36.366V30.5035L36.5892 33.462V39.1815ZM28.6697 36.351L33.6652 39.2815V33.5045L28.6697 30.6035V36.351Z" fill="#1C1B1F"/>
</g>
</svg>
